<?xml version="1.0" encoding="windows-1252"?>
<!-- Generator: Adobe Illustrator 19.2.1, SVG Export Plug-In . SVG Version: 6.00 Build 0)  -->
<svg version="1.1" xmlns="http://www.w3.org/2000/svg" xmlns:xlink="http://www.w3.org/1999/xlink" x="0px" y="0px" viewBox="0 0 40 40" style="enable-background:new 0 0 40 40;" xml:space="preserve">
<g>
	<rect x="14.5" y="7.5" style="fill:#FFC49C;" width="11" height="31"/>
	<g>
		<path style="fill:#A16A4A;" d="M25,8v30H15V8H25 M26,7H14v32h12V7L26,7z"/>
	</g>
</g>
<rect x="14.5" y="11" style="fill:#A16A4A;" width="11" height="1"/>
<rect x="14.5" y="34" style="fill:#A16A4A;" width="11" height="1"/>
<rect x="19" y="16" style="fill:#A16A4A;" width="2" height="14"/>
<g>
	<rect x="27.5" y="1.5" style="fill:#8BB7F0;" width="11" height="37"/>
	<g>
		<path style="fill:#4E7AB5;" d="M38,2v36H28V2H38 M39,1H27v38h12V1L39,1z"/>
	</g>
</g>
<rect x="27.5" y="5" style="fill:#4E7AB5;" width="11" height="1"/>
<rect x="27.5" y="34" style="fill:#4E7AB5;" width="11" height="1"/>
<rect x="32" y="11" style="fill:#4E7AB5;" width="2" height="18"/>
<g>
	<rect x="1.5" y="1.5" style="fill:#BAE0BD;" width="11" height="37"/>
	<g>
		<path style="fill:#5E9C76;" d="M12,2v36H2V2H12 M13,1H1v38h12V1L13,1z"/>
	</g>
</g>
<rect x="1.5" y="5" style="fill:#5E9C76;" width="11" height="1"/>
<rect x="1.5" y="34" style="fill:#5E9C76;" width="11" height="1"/>
<rect x="6" y="11" style="fill:#5E9C76;" width="2" height="18"/>
</svg>