<?xml version="1.0" encoding="windows-1252"?>
<!-- Generator: Adobe Illustrator 21.0.2, SVG Export Plug-In . SVG Version: 6.00 Build 0)  -->
<svg xmlns="http://www.w3.org/2000/svg" xmlns:xlink="http://www.w3.org/1999/xlink" version="1.1" id="Layer_1" x="0px" y="0px" viewBox="0 0 40 40" style="enable-background:new 0 0 40 40;" xml:space="preserve">
<path style="fill:none;stroke:#4788C7;stroke-width:2;stroke-linecap:round;stroke-miterlimit:10;" d="M31,17v16  c0,0-0.108,5.033,5,5.033L38,38"/>
<g>
	<path style="fill:#DFF0FE;" d="M17,32.5C8.453,32.5,1.5,25.547,1.5,17S8.453,1.5,17,1.5S32.5,8.453,32.5,17S25.547,32.5,17,32.5z"/>
	<path style="fill:#4788C7;" d="M17,2c8.271,0,15,6.729,15,15s-6.729,15-15,15S2,25.271,2,17S8.729,2,17,2 M17,1   C8.163,1,1,8.163,1,17s7.163,16,16,16s16-7.163,16-16S25.837,1,17,1L17,1z"/>
</g>
<g>
	<circle style="fill:#98CCFD;" cx="17" cy="9" r="3.5"/>
	<path style="fill:#4788C7;" d="M17,6c1.654,0,3,1.346,3,3c0,1.654-1.346,3-3,3s-3-1.346-3-3C14,7.346,15.346,6,17,6 M17,5   c-2.209,0-4,1.791-4,4s1.791,4,4,4s4-1.791,4-4S19.209,5,17,5L17,5z"/>
</g>
<g>
	<circle style="fill:#98CCFD;" cx="17" cy="25" r="3.5"/>
	<path style="fill:#4788C7;" d="M17,22c1.654,0,3,1.346,3,3s-1.346,3-3,3s-3-1.346-3-3S15.346,22,17,22 M17,21c-2.209,0-4,1.791-4,4   s1.791,4,4,4s4-1.791,4-4S19.209,21,17,21L17,21z"/>
</g>
<g>
	<circle style="fill:#98CCFD;" cx="9" cy="17" r="3.5"/>
	<path style="fill:#4788C7;" d="M9,14c1.654,0,3,1.346,3,3s-1.346,3-3,3s-3-1.346-3-3S7.346,14,9,14 M9,13c-2.209,0-4,1.791-4,4   s1.791,4,4,4s4-1.791,4-4S11.209,13,9,13L9,13z"/>
</g>
<g>
	<circle style="fill:#98CCFD;" cx="25" cy="17" r="3.5"/>
	<path style="fill:#4788C7;" d="M25,14c1.654,0,3,1.346,3,3s-1.346,3-3,3s-3-1.346-3-3S23.346,14,25,14 M25,13c-2.209,0-4,1.791-4,4   s1.791,4,4,4s4-1.791,4-4S27.209,13,25,13L25,13z"/>
</g>
<path style="fill:#4788C7;" d="M17,15C16.765,15,17.235,15,17,15c-1.105,0-2,0.895-2,2s0.895,2,2,2c0.235,0-0.235,0,0,0  c1.105,0,2-0.895,2-2S18.105,15,17,15z"/>
</svg>