<?xml version="1.0" encoding="UTF-8"?>
<svg xmlns="http://www.w3.org/2000/svg" viewBox="0 0 50 50" enable-background="new 0 0 50 50">
    <path style="text-indent:0;text-align:start;line-height:normal;text-transform:none;block-progression:tb;-inkscape-font-specification:Bitstream Vera Sans" d="M 4 4 L 4 5 L 4 45 L 4 46 L 5 46 L 45 46 L 46 46 L 46 45 L 46 5 L 46 4 L 45 4 L 5 4 L 4 4 z M 6 6 L 10 6 L 10 9 L 6 9 L 6 6 z M 40 6 L 44 6 L 44 9 L 40 9 L 40 6 z M 6 11 L 10 11 L 10 14 L 6 14 L 6 11 z M 40 11 L 44 11 L 44 14 L 40 14 L 40 11 z M 6 16 L 10 16 L 10 19 L 6 19 L 6 16 z M 40 16 L 44 16 L 44 19 L 40 19 L 40 16 z M 6 21 L 10 21 L 10 24 L 6 24 L 6 21 z M 40 21 L 44 21 L 44 24 L 40 24 L 40 21 z M 12 24 L 38 24 L 38 26 L 12 26 L 12 24 z M 6 26 L 10 26 L 10 29 L 6 29 L 6 26 z M 40 26 L 44 26 L 44 29 L 40 29 L 40 26 z M 6 31 L 10 31 L 10 34 L 6 34 L 6 31 z M 40 31 L 44 31 L 44 34 L 40 34 L 40 31 z M 6 36 L 10 36 L 10 39 L 6 39 L 6 36 z M 40 36 L 44 36 L 44 39 L 40 39 L 40 36 z M 6 41 L 10 41 L 10 44 L 6 44 L 6 41 z M 40 41 L 44 41 L 44 44 L 40 44 L 40 41 z"/>
</svg>