<?xml version="1.0" encoding="UTF-8"?>
<svg xmlns="http://www.w3.org/2000/svg" viewBox="0 0 50 50" enable-background="new 0 0 50 50">
    <path d="M 0 3 L 0 33 L 17 33 L 15 31 L 2 31 L 2 5 L 48 5 L 48 31 L 29 31 L 31 33 L 50 33 L 50 3 L 0 3 z M 3 6 L 3 9 L 5 9 L 5 6 L 3 6 z M 9 6 L 9 9 L 11 9 L 11 6 L 9 6 z M 15 6 L 15 9 L 17 9 L 17 6 L 15 6 z M 21 6 L 21 9 L 23 9 L 23 6 L 21 6 z M 27 6 L 27 9 L 29 9 L 29 6 L 27 6 z M 33 6 L 33 9 L 35 9 L 35 6 L 33 6 z M 39 6 L 39 9 L 41 9 L 41 6 L 39 6 z M 45 6 L 45 9 L 47 9 L 47 6 L 45 6 z M 11.875 16.59375 A 1.0001 1.0001 0 0 0 11 17.59375 L 11 21.90625 C 11 23.741786 11.704213 25.521099 13.09375 26.8125 L 13.125 26.84375 L 20.25 33.9375 L 18.03125 36.15625 C 16.702019 36.11233 15.386573 36.519677 14.40625 37.5 L 12.40625 39.5 C 10.437965 41.468285 10.437965 44.625465 12.40625 46.59375 C 14.374535 48.562035 17.531715 48.562035 19.5 46.59375 L 21.5 44.59375 C 22.480323 43.613427 22.887666 42.297981 22.84375 40.96875 L 25.0625 38.75 L 27.15625 40.84375 C 27.103236 42.183421 27.511935 43.511935 28.5 44.5 L 30.5 46.5 C 32.468285 48.468285 35.625465 48.468285 37.59375 46.5 C 39.562035 44.531715 39.562035 41.374535 37.59375 39.40625 L 35.59375 37.40625 C 34.621576 36.434076 33.318195 36.028001 32 36.0625 L 12.71875 16.90625 A 1.0001 1.0001 0 0 0 11.875 16.59375 z M 13 20.03125 L 30.78125 37.71875 A 1.0001 1.0001 0 0 0 31.65625 38 C 32.527452 37.8548 33.523202 38.148202 34.1875 38.8125 L 36.1875 40.8125 C 37.419215 42.044215 37.419215 43.862035 36.1875 45.09375 C 34.955785 46.325465 33.137965 46.325465 31.90625 45.09375 L 29.90625 43.09375 C 29.241952 42.429452 28.94855 41.433702 29.09375 40.5625 A 1.0001 1.0001 0 0 0 28.8125 39.6875 L 14.5 25.40625 A 1.0001 1.0001 0 0 0 14.46875 25.375 C 13.48016 24.468793 13 23.25625 13 21.90625 L 13 20.03125 z M 3 27 L 3 30 L 5 30 L 5 27 L 3 27 z M 9 27 L 9 30 L 11 30 L 11 27 L 9 27 z M 27 27 L 27 29 L 28 30 L 29 30 L 29 27 L 27 27 z M 33 27 L 33 30 L 35 30 L 35 27 L 33 27 z M 39 27 L 39 30 L 41 30 L 41 27 L 39 27 z M 45 27 L 45 30 L 47 30 L 47 27 L 45 27 z M 25 32.90625 C 24.392487 32.90625 23.90625 33.392487 23.90625 34 C 23.90625 34.607513 24.392487 35.09375 25 35.09375 C 25.607513 35.09375 26.09375 34.607513 26.09375 34 C 26.09375 33.392487 25.607513 32.90625 25 32.90625 z M 21.65625 35.375 L 23.625 37.34375 L 21.1875 39.78125 A 1.0001 1.0001 0 0 0 20.90625 40.65625 C 21.05145 41.527452 20.758048 42.523202 20.09375 43.1875 L 18.09375 45.1875 C 16.862035 46.419215 15.044215 46.419215 13.8125 45.1875 C 12.580785 43.955785 12.580785 42.137965 13.8125 40.90625 L 15.8125 38.90625 C 16.476798 38.241952 17.472548 37.94855 18.34375 38.09375 A 1.0001 1.0001 0 0 0 19.21875 37.8125 L 21.65625 35.375 z M 17.5625 39.9375 C 17.1875 39.9375 16.8 40.10625 16.5 40.40625 L 15.5 41.40625 C 14.9 42.00625 14.9 42.9 15.5 43.5 C 16.1 44.1 16.99375 44.1 17.59375 43.5 L 18.59375 42.5 C 19.09375 42 19.09375 41.00625 18.59375 40.40625 C 18.29375 40.10625 17.9375 39.9375 17.5625 39.9375 z M 32.5 40.03125 C 32.1125 40.03125 31.70625 40.15625 31.40625 40.40625 C 30.80625 41.00625 30.80625 41.9 31.40625 42.5 L 32.40625 43.5 C 33.00625 44.1 33.9 44.1 34.5 43.5 C 35.1 42.9 35.1 42.00625 34.5 41.40625 L 33.5 40.40625 C 33.25 40.15625 32.8875 40.03125 32.5 40.03125 z"/>
</svg>