<?xml version="1.0" encoding="UTF-8"?>
<svg xmlns="http://www.w3.org/2000/svg" viewBox="0 0 50 50" enable-background="new 0 0 50 50">
    <path style="text-indent:0;text-align:start;line-height:normal;text-transform:none;block-progression:tb;-inkscape-font-specification:Bitstream Vera Sans" d="M 3 13 C 1.3545455 13 0 14.354545 0 16 L 0 34 C 0 35.645455 1.3545455 37 3 37 L 47 37 C 48.645455 37 50 35.645455 50 34 L 50 16 C 50 14.354545 48.645455 13 47 13 L 3 13 z M 3 15 L 47 15 C 47.554545 15 48 15.445455 48 16 L 48 34 C 48 34.554545 47.554545 35 47 35 L 3 35 C 2.4454545 35 2 34.554545 2 34 L 2 16 C 2 15.445455 2.4454545 15 3 15 z M 37 16 C 32.041282 16 28 20.041282 28 25 C 28 29.958718 32.041282 34 37 34 C 41.958718 34 46 29.958718 46 25 C 46 20.041282 41.958718 16 37 16 z M 37 18 C 40.877838 18 44 21.122162 44 25 C 44 28.877838 40.877838 32 37 32 C 33.122162 32 30 28.877838 30 25 C 30 21.122162 33.122162 18 37 18 z M 6 20 L 6 22 L 26 22 L 26 20 L 6 20 z M 37 20 C 34.250421 20 32 22.250421 32 25 C 32 27.749579 34.250421 30 37 30 C 39.749579 30 42 27.749579 42 25 C 42 22.250421 39.749579 20 37 20 z M 37 22 C 38.668699 22 40 23.331301 40 25 C 40 26.668699 38.668699 28 37 28 C 35.331301 28 34 26.668699 34 25 C 34 23.331301 35.331301 22 37 22 z M 6 24 L 6 26 L 26 26 L 26 24 L 6 24 z M 6 28 L 6 30 L 26 30 L 26 28 L 6 28 z M 4 38 L 4 40 L 12 40 L 12 38 L 4 38 z M 38 38 L 38 40 L 46 40 L 46 38 L 38 38 z"/>
</svg>