<?xml version="1.0" encoding="UTF-8"?>
<svg xmlns="http://www.w3.org/2000/svg" viewBox="0 0 24 24" enable-background="new 0 0 24 24">
    <path d="M3.878,0.19l4.123,4.123c0,0,0,1.229-1.229,2.459C5.542,8.001,4.313,8.001,4.313,8.001L0.19,3.878 c-0.583,2.322,0.207,5.124,1.922,6.84c1.586,1.586,3.283,1.562,4.942,0.665c0.28-0.152,0.898-0.398,1.6,0.305 C12.3,15.333,19.187,23.019,19.32,23.151c1.101,1.101,2.85,1.135,3.908,0.077c1.058-1.058,1.024-2.808-0.077-3.908 c-0.134-0.134-7.985-7.168-11.568-10.751c-0.666-0.666-0.403-1.154-0.266-1.396c0.96-1.697,1.024-3.436-0.6-5.06 C9.003,0.397,6.2-0.393,3.878,0.19z M22.2,21c0,0.663-0.537,1.2-1.2,1.2s-1.2-0.537-1.2-1.2s0.537-1.2,1.2-1.2S22.2,20.337,22.2,21z"/>
</svg>